<?xml version="1.0" encoding="utf-8"?>
<!-- Generator: Adobe Illustrator 22.0.1, SVG Export Plug-In . SVG Version: 6.00 Build 0)  -->
<svg version="1.1" id="Layer_1" xmlns="http://www.w3.org/2000/svg" xmlns:xlink="http://www.w3.org/1999/xlink" x="0px" y="0px"
	 viewBox="0 0 100 94.7" style="enable-background:new 0 0 100 94.7;" xml:space="preserve">
<path d="M90.5,26.7c-7.8-2.7-10.3-7.2-10.7-14.5c-0.2-3.4-1.5-6.6-4.6-8.3C66.7-0.8,58.3-2.5,49.8,6c-3.4,3.4-6.1,7.2-6.7,11.9
	c-0.9,7.5-4.4,12-11.9,13.8C19.5,34.4,12,43.2,4.6,51.6c-8.2,9.4-5.4,16.6,7.5,18.7C20,71.5,23,74.5,24.3,82.6
	c1.5,9.3,6.9,12.2,18,12.1c7.4-0.5,16.9-3.8,26.9-4c13.5-0.2,17.9-4.6,18.8-17.9c0.5-7.6,2-14.2,6.9-20.1c1.7-2,2.9-4.5,3.8-6.9
	C101.8,37.4,99.3,29.8,90.5,26.7z M39.3,88.4c-2.8-0.4-5-1.9-5.3-4.6c-0.6-4.9,4.2-9.9,9.5-10c2.8,0,4.9,1.9,5.2,4.6
	C49.2,83.5,44.6,88.2,39.3,88.4z M15.9,62.1c-2.9-0.6-4.2-3.5-2.6-6.1c1-1.7,2.2-3.3,3.3-4.9c4.3-6.2,9.7-10.8,17.8-10.8
	c7.8,0.1,10.8,6.4,15.4,10.9C40.5,63.5,28.8,64.7,15.9,62.1z M55,33.5c-2.7-1.3-3-4.1-3.2-6.7c0-0.7,0-1.3,0-1.6
	c0.5-6.1,2.6-10.7,8.5-12.6c2.6-0.8,5.5-0.6,7.2,1.8c1,1.5,1.8,3.7,1.6,5.5c-0.6,4.8-3.2,8.6-6.9,11.8C60.2,33.4,57.8,34.9,55,33.5z
	 M77.2,77.2c-1.2,3.5-7.1,5.5-9.8,3.2c-4.8-4.2-6.4-9.6-5.6-15.7c0.1-0.9,1.7-1.7,2.6-2.5C72.3,60.8,79.8,69.7,77.2,77.2z M91,42.9
	c-2.7,5.7-6.7,9.6-13.3,9.8c-4.5,0.1-10.2-3.6-10.8-6.8c-0.6-3.4,3.3-8.1,8.3-9.5c2.5-0.7,5.1-0.9,6.7-1.2c2.3,0.2,3.6,0.3,4.9,0.5
	C90.2,36.2,92.4,40,91,42.9z"/>
</svg>
