<?xml version="1.0" encoding="utf-8"?>
<!-- Generator: Adobe Illustrator 22.0.1, SVG Export Plug-In . SVG Version: 6.00 Build 0)  -->
<svg version="1.1" id="Layer_1" xmlns="http://www.w3.org/2000/svg" xmlns:xlink="http://www.w3.org/1999/xlink" x="0px" y="0px"
	 viewBox="0 0 100 94.7" style="enable-background:new 0 0 100 94.7;" xml:space="preserve">
<style type="text/css">
	.st0{fill:#FFFFFF;}
</style>
<g>
	<path class="st0" d="M63.8,20.1c6.7,0.4,11.1-3.8,16.7-2.5c7.3,1.7,11.3,8.4,8.2,14.9c-0.9,1.8-1.7,3.7-3.1,5
		c-7.5,7.1-10.2,13.3-2.9,23.6c6.2,8.7,3.4,20.6-10.7,24.4c-11.1,3-21.9,5.8-32.5-1.4c-4-2.7-8.8-2.7-13.4-3
		C15.7,80.7,6.4,69.7,6.2,57.4C6.1,47,12,39.8,22.4,38c2.6-0.4,5.3,0.3,7.9,0.1c2.9-0.3,4.7-2.3,5.1-5.2c0.3-1.9,0.3-4-0.1-5.9
		C33,15.8,40,9.7,47.8,4.1c5.7-4.1,11.5-2,13.8,5.1C62.6,12.3,62.9,15.7,63.8,20.1z M35,59c0.9-7.3-2.8-12.2-9.1-12.7
		c-6.4-0.5-11.2,3.7-11.9,10.3c-0.7,6.2,1.1,11.5,6,15.7c3,2.6,8.1,2.1,10.4-0.9C33.3,67.6,34.3,63.2,35,59z M81.7,29.3
		c-0.8-1.8-1-3.5-1.8-3.9c-1.6-0.8-4-1.7-5.3-1.1c-6.7,3.2-11.9,8.2-14.5,15.2c-0.5,1.4,0.5,4,1.7,5.1c1.2,1.1,3.9,1.9,5.2,1.3
		C74.7,42.7,79.6,36.9,81.7,29.3z M48.2,39.4c5-7.3,7.7-14.4,7.1-22.6c-0.1-1.1-1.2-2.5-2.2-2.9c-1-0.4-2.7-0.2-3.6,0.5
		c-3.4,2.4-5.7,5.9-6.1,9.9C43.1,29.4,43.1,34.6,48.2,39.4z M45.6,70.5c0.5,2.8,0.7,6.2,1.7,9.2c0.9,2.6,3.5,3.9,6.4,3.5
		c3.2-0.5,4.5-2.8,3.8-5.7c-1.1-5.2-2.7-10.2-7-13.7c-0.6-0.4-2.8,0.1-3.1,0.7C46.5,66.1,46.2,68.1,45.6,70.5z M68.4,58.9
		c-2.5,0.3-4.2,1.6-3.9,3.9c0.5,4.2,3.5,7,6.7,9.5c2.2,1.8,5,2.7,6.9,0c0.9-1.3,1.1-3.9,0.5-5.5C76.7,62.2,73.3,59.3,68.4,58.9z"/>
</g>
</svg>
