<?xml version="1.0" encoding="utf-8"?>
<!-- Generator: Adobe Illustrator 22.0.1, SVG Export Plug-In . SVG Version: 6.00 Build 0)  -->
<svg version="1.1" id="Layer_1" xmlns="http://www.w3.org/2000/svg" xmlns:xlink="http://www.w3.org/1999/xlink" x="0px" y="0px"
	 viewBox="0 0 102.5 112.6" style="enable-background:new 0 0 102.5 112.6;" xml:space="preserve">
<style type="text/css">
	.st0{fill:#FFFFFF;}
</style>
<path class="st0" d="M49,29.1c2.4-9.8,3.5-17.8,8.7-24.2c2.7-3.3,5.9-5.7,10.3-4.7c4.3,1,6,4.7,7.4,8.6c2.3,6.3-2.9,14.4,2.6,19
	c4.2,3.5,11.3,3.4,16.5,6c6.4,3.2,9.3,8.8,7.5,16.4c-4.2-0.8-3.9-4.2-5.5-6.1c-5.5-6.1-10.8-7.2-17.6-3.6c-2.3,1.2-4.5,2.9-6.6,4.5
	c-9.2,7-9.4,10.2-1.6,19c1.8,2,3.8,3.7,5.3,5.9c10.8,15.5,8.2,26.5-8.2,36.1c-6.4,3.7-13.2,6.4-20.7,6.6c-4.8,0.2-10.2-0.5-12.1-5.1
	c-2.8-6.6-7.3-6.6-12.9-5.8c-2.6,0.4-5.3,0.3-8,0C3.8,100.4-2.4,90.1,0.9,79.4c0.3-1,1.7-2,2.9-2.5c1.4-0.6,2.5,0.2,2.6,1.8
	c0.1,2-0.4,4.1,0,5.9c1.7,7,5,10.5,9.9,10.9c6.6,0.5,14-3.7,16.1-9.5c1.8-4.9,0.4-9.5-3.3-12.8c-3.4-3-8-4.8-11.5-7.7
	C7.5,57.5,6.1,51,11.4,39.5c0.8-1.8,1.8-3.6,2.8-5.3c5.7-9.1,11.5-11.7,21.8-9.3C39.8,25.8,43.5,27.3,49,29.1z M73.6,86.2
	c-0.6-2.3-0.6-3.8-1.3-4.8c-4.8-6.6-11.6-12-19.4-12c-6.7,0-7.5,8.2-9.4,13.7c-1.2,3.8-2.5,7.6-3.2,11.4c-0.9,5.1,2.4,9.4,7.3,9.8
	c10.2,0.8,17.9-3.7,23.8-11.6C72.9,90.7,73.1,87.8,73.6,86.2z M25.2,58.9c6.4-1.1,12.9-2.1,19.3-3.6c1.4-0.3,3-2.9,3.1-4.5
	c0.4-8.1-5-15.8-12.7-17.9c-2.3-0.6-5.4-0.6-7.6,0.5c-5.5,2.6-9.4,7-11.1,13.1C14.6,52.6,19.1,58.9,25.2,58.9z M59.6,25.8
	c0.2,1.3,0.2,2.7,0.7,3.9c0.5,1,1.5,2.3,2.5,2.5c1,0.2,2.6-0.6,3.1-1.5c2.7-4.6,4.8-9.5,3-14.9c-0.3-1-1.8-2-2.8-2.2
	c-1.1-0.2-2.6,0.4-3.4,1.2C59.5,17.8,59.8,21.9,59.6,25.8z"/>
</svg>
