<?xml version="1.0" encoding="utf-8"?>
<!-- Generator: Adobe Illustrator 22.0.1, SVG Export Plug-In . SVG Version: 6.00 Build 0)  -->
<svg version="1.1" id="Layer_1" xmlns="http://www.w3.org/2000/svg" xmlns:xlink="http://www.w3.org/1999/xlink" x="0px" y="0px"
	 viewBox="0 0 83.5 86.7" style="enable-background:new 0 0 83.5 86.7;" xml:space="preserve">
<g>
	<path d="M57.5,18.1c6.7,0.4,11.1-3.8,16.7-2.5c7.3,1.7,11.3,8.4,8.2,14.9c-0.9,1.8-1.7,3.7-3.1,5c-7.5,7.1-10.2,13.3-2.9,23.6
		c6.2,8.7,3.4,20.6-10.7,24.4c-11.1,3-21.9,5.8-32.5-1.4c-4-2.7-8.8-2.7-13.4-3C9.5,78.6,0.1,67.6,0,55.3C-0.1,45,5.8,37.8,16.2,36
		c2.6-0.4,5.3,0.3,7.9,0.1c2.9-0.3,4.7-2.3,5.1-5.2c0.3-1.9,0.3-4-0.1-5.9C26.8,13.7,33.8,7.6,41.5,2.1C47.2-2,53,0.1,55.4,7.2
		C56.4,10.3,56.7,13.6,57.5,18.1z M28.8,57c0.9-7.3-2.8-12.2-9.1-12.7C13.3,43.9,8.5,48,7.8,54.6c-0.7,6.2,1.1,11.5,6,15.7
		c3,2.6,8.1,2.1,10.4-0.9C27,65.6,28,61.2,28.8,57z M75.5,27.2c-0.8-1.8-1-3.5-1.8-3.9c-1.6-0.8-4-1.7-5.3-1.1
		c-6.7,3.2-11.9,8.2-14.5,15.2c-0.5,1.4,0.5,4,1.7,5.1c1.2,1.1,3.9,1.9,5.2,1.3C68.4,40.6,73.4,34.8,75.5,27.2z M42,37.4
		c5-7.3,7.7-14.4,7.1-22.6c-0.1-1.1-1.2-2.5-2.2-2.9c-1-0.4-2.7-0.2-3.6,0.5c-3.4,2.4-5.7,5.9-6.1,9.9C36.9,27.3,36.9,32.6,42,37.4z
		 M39.4,68.5c0.5,2.8,0.7,6.2,1.7,9.2c0.9,2.6,3.5,3.9,6.4,3.5c3.2-0.5,4.5-2.8,3.8-5.7c-1.1-5.2-2.7-10.2-7-13.7
		c-0.6-0.4-2.8,0.1-3.1,0.7C40.3,64,40,66,39.4,68.5z M62.1,56.8c-2.5,0.3-4.2,1.6-3.9,3.9c0.5,4.2,3.5,7,6.7,9.5
		c2.2,1.8,5,2.7,6.9,0c0.9-1.3,1.1-3.9,0.5-5.5C70.5,60.1,67,57.2,62.1,56.8z"/>
</g>
</svg>
