<?xml version="1.0" encoding="utf-8"?>
<!-- Generator: Adobe Illustrator 22.0.1, SVG Export Plug-In . SVG Version: 6.00 Build 0)  -->
<svg version="1.1" id="Layer_1" xmlns="http://www.w3.org/2000/svg" xmlns:xlink="http://www.w3.org/1999/xlink" x="0px" y="0px"
	 viewBox="0 0 102.5 112.6" style="enable-background:new 0 0 102.5 112.6;" xml:space="preserve">
<style type="text/css">
	.st0{fill:#FFFFFF;}
</style>
<path class="st0" d="M67.1,99.7c-7.5-2.3-13.5-0.3-19.3,3.8c-2.6,1.8-6,2.7-9.2,3.3c-3.7,0.7-9.1-3.6-8-6.9c4.3-13-2.5-20.5-10.9-29
	c-9.5-9.6-7.8-21.5,3-31.1c3.7-3.3,6.5-6.4,7.2-11.3c0.3-1.9,0.9-3.9,1.7-5.7c6-13,15.6-16.1,27.2-7.7c5.7,4.1,11.5,5.7,17.9,7.3
	c11.9,3,15.8,12.1,9,22.7c-4.7,7.2-5.6,12.6-0.9,19.9c2.4,3.7,3.2,8.7,4.1,13.3c2.7,12.6-3.8,20.8-16.5,21.5
	C70.6,99.8,68.6,99.7,67.1,99.7z M81.3,82c0-5-1.4-10.6-5.6-15.2c-2.7-3-6.3-5-10.5-3.5c-3.9,1.4-6.6,4.6-7,8.7
	c-0.6,5.9,0.7,11.7,4.1,16.8c2.7,4.1,7.7,6.1,11.9,4.9C78.4,92.4,81.2,88.2,81.3,82z M42.9,62c0-0.7,0.1-1.4-0.2-1.9
	c-3-6.2-7.7-10.5-14.5-11.9c-2.6-0.5-4.9,1.6-6.2,4c-3.2,5.4-0.8,12.6,5.5,16.7c4.4,2.8,10,1.5,13.7-3.4C42,64.6,42.3,63.2,42.9,62z
	 M57.3,30.5c-0.5-2.4-0.8-5.1-1.7-7.5c-1-2.6-3.2-4.2-6.1-4.5c-2.9-0.3-5.2,0.9-6.8,3.2c-3.9,5.2-4.7,10.9-1.8,16.8
	c1.6,3.2,4.5,4.8,8.1,4.8c3.2-0.1,4.5-2.6,5.6-5C55.7,35.9,56.3,33.3,57.3,30.5z M80.1,35.4c-0.9-1-2-3-3.5-3.7
	c-1.5-0.6-4.2-0.6-5.4,0.3c-5.7,4.7-9.2,10.8-9.9,18.3c-0.2,2.1,1.8,3.8,3.8,3.5C73.4,52.4,80.7,43.6,80.1,35.4z M40.8,97.5
	c0.6-0.1,1.4,0.1,1.9-0.2c5.3-2.7,7.2-6.6,5.9-13.2c-0.2-1-1.5-2.4-2.5-2.6c-3.3-0.8-6.6,3.2-8.2,9.7c-0.3,1.2-0.3,2.8,0.1,3.9
	C38.6,96.1,39.9,96.7,40.8,97.5z"/>
</svg>
