<?xml version="1.0" standalone="no"?>
<!DOCTYPE svg PUBLIC "-//W3C//DTD SVG 20010904//EN"
 "http://www.w3.org/TR/2001/REC-SVG-20010904/DTD/svg10.dtd">
<svg version="1.0" xmlns="http://www.w3.org/2000/svg"
 width="880.000000pt" height="880.000000pt" viewBox="0 0 880.000000 880.000000"
 preserveAspectRatio="xMidYMid meet">
<metadata>
Created by potrace 1.14, written by Peter Selinger 2001-2017
</metadata>
<g transform="translate(0.000000,880.000000) scale(0.100000,-0.100000)"
fill="#000000" stroke="none">
<path d="M0 4400 l0 -4400 4400 0 4400 0 0 4400 0 4400 -4400 0 -4400 0 0
-4400z m3246 3909 c216 -30 391 -150 483 -330 72 -143 72 -147 68 -1021 -3
-698 -5 -768 -21 -823 -63 -210 -232 -371 -456 -432 -88 -24 -272 -24 -360 0
-112 31 -205 82 -286 159 -84 80 -131 155 -166 268 l-23 75 0 800 0 800 28 82
c102 301 394 469 733 422z m4708 -9 c117 -30 204 -80 283 -164 134 -142 185
-271 186 -466 1 -130 -15 -206 -65 -304 -65 -128 -156 -224 -268 -281 -101
-51 -162 -65 -330 -76 -184 -11 -298 -29 -410 -65 -382 -120 -724 -457 -849
-836 -50 -150 -62 -240 -68 -505 l-6 -253 724 0 c802 0 805 -1 934 -64 212
-105 345 -333 345 -591 0 -320 -201 -582 -492 -640 -65 -13 -189 -15 -793 -15
l-715 0 0 -1572 c0 -1738 3 -1643 -64 -1785 -47 -97 -77 -136 -163 -204 -136
-108 -256 -149 -436 -149 -195 0 -336 58 -472 195 -90 90 -126 149 -158 262
l-22 78 -3 1588 -2 1587 -655 0 -655 0 0 -592 c0 -326 -5 -645 -10 -708 -59
-650 -320 -1198 -791 -1656 -411 -398 -916 -648 -1479 -729 -149 -22 -476 -31
-562 -16 -85 15 -179 54 -251 104 -69 48 -164 162 -201 242 -119 250 -75 554
109 752 142 154 235 187 587 213 75 5 169 17 210 25 278 61 511 188 693 376
205 212 318 444 365 749 6 38 10 311 10 652 l0 587 -767 3 c-841 4 -807 2
-940 64 -62 29 -165 121 -219 196 -51 69 -92 176 -112 290 -14 83 -15 108 -4
184 24 166 75 277 176 383 72 75 124 113 197 142 125 50 34 48 2237 49 l2062
0 0 208 c1 523 70 871 249 1247 273 572 817 1091 1381 1320 335 135 617 192
966 194 140 1 185 -3 248 -19z"/>
</g>
</svg>
